<svg xmlns="http://www.w3.org/2000/svg" viewBox="0 0 520 66.72"><defs><style>.cls-1{fill:#fff;}</style></defs><g id="Layer_2" data-name="Layer 2"><g id="Layer_1-2" data-name="Layer 1"><path class="cls-1" d="M1.66,66.14A1.66,1.66,0,0,1,0,64.48V2.24A1.6,1.6,0,0,1,1.66.58H73.45a1.6,1.6,0,0,1,1.66,1.66V12.78a1.65,1.65,0,0,1-1.66,1.66h-53a2.21,2.21,0,0,0-2.44,2.44v6.73a2.21,2.21,0,0,0,2.44,2.44H70.72a1.71,1.71,0,0,1,1.66,1.66v10a1.7,1.7,0,0,1-1.66,1.65H20.49a2.22,2.22,0,0,0-2.44,2.44v7.81a2.22,2.22,0,0,0,2.44,2.44H73.84a1.59,1.59,0,0,1,1.66,1.65V64.49a1.65,1.65,0,0,1-1.66,1.66H1.66Zm137.92,0a1.71,1.71,0,0,1-1.66-1.66V44.38a4.3,4.3,0,0,0-1.08-2.93L103.59,3A1.44,1.44,0,0,1,104.75.58h18.53a2.72,2.72,0,0,1,2.44,1.17l20,24.88a1.91,1.91,0,0,0,3.21,0l20-24.87A2.71,2.71,0,0,1,171.37.59H189.9A1.44,1.44,0,0,1,191.07,3L157.81,41.46a3.9,3.9,0,0,0-1.07,2.93v20.1a1.65,1.65,0,0,1-1.66,1.66h-15.5Zm112,0a1.7,1.7,0,0,1-1.66-1.66v-47c0-1.46-.59-2.15-2-2.15H221a1.59,1.59,0,0,1-1.66-1.66V2.24A1.6,1.6,0,0,1,221,.58h76.58a1.65,1.65,0,0,1,1.66,1.66V13.65a1.64,1.64,0,0,1-1.66,1.66H270.78c-1.46,0-2,.69-2,2.15v47a1.71,1.71,0,0,1-1.66,1.66Zm112,0a1.71,1.71,0,0,1-1.66-1.66V44.38a4.34,4.34,0,0,0-1.07-2.93L327.55,3A1.44,1.44,0,0,1,328.71.58h18.53a2.72,2.72,0,0,1,2.44,1.17l20,24.88a1.91,1.91,0,0,0,3.21,0l20-24.87A2.71,2.71,0,0,1,395.33.59h18.53A1.44,1.44,0,0,1,415,3L381.77,41.46a3.9,3.9,0,0,0-1.07,2.93v20.1A1.65,1.65,0,0,1,379,66.15h-15.5ZM445.77,63c-4.19-2.63-5.56-6.44-5.56-15.22A1.75,1.75,0,0,1,442,46h13.85a1.78,1.78,0,0,1,1.75,1.56c.19,2.15.78,3.51,2.54,4.59,2.24,1.46,4.59,1.66,19.32,1.66,22.43,0,23.31-.2,23.31-7.32,0-5.36-2.93-6.23-9.27-6.53l-32.58-1.27c-16-.59-20.1-4.19-20.1-18.24C440.78,8.3,444,3,452.68,1.17,456.6.39,466.15,0,481.76,0c19.41,0,26.25.88,30.73,3.9,3.61,2.44,5.07,6.45,5.07,14a1.74,1.74,0,0,1-1.75,1.75H501.86a1.7,1.7,0,0,1-1.75-1.46c-.39-1.85-.78-3-2.35-4-2.05-1.27-5.26-1.37-19.6-1.37-16.88,0-20.1.2-20.1,6.73,0,3,1.36,5,4,5.56,1.95.59,7.22.89,21.95,1.27,21.95.69,26.24,1.27,30.23,3.71C518.43,32.88,520,37,520,46c0,11.12-2.54,16.39-9,18.83-3.8,1.46-12.19,1.94-32.2,1.94C458.26,66.72,450.16,65.84,445.77,63Z"/></g></g></svg>