<svg width="515" height="79" viewBox="0 0 515 79" fill="none" xmlns="http://www.w3.org/2000/svg">
<g clip-path="url(#clip0_8_2)">
<mask id="mask0_8_2" style="mask-type:alpha" maskUnits="userSpaceOnUse" x="1" y="1" width="514" height="78">
<path d="M1.75 1.04834H514.19V79H1.75V1.04834Z" fill="white"/>
</mask>
<g mask="url(#mask0_8_2)">
<path fill-rule="evenodd" clip-rule="evenodd" d="M18.0812 20.8983C18.0812 15.8572 20.891 12.7706 25.9919 12.7706C30.9878 12.7706 34.1069 15.7541 36.5027 22.7499L49.4057 19.045C46.905 8.55582 39.1028 1.04834 26.3029 1.04834C11.4235 1.04834 3.72436 9.07115 3.72436 21.8241C3.72436 42.5981 35.7758 42.8024 35.7758 56.7885C35.7758 62.345 31.9226 65.634 26.9267 65.634C22.6612 65.634 17.4573 62.4444 15.7956 53.4977L1.64136 56.4811C5.49274 71.0838 14.5444 77.3581 26.1998 77.3581C41.2907 77.3581 50.1344 68.9249 50.1344 56.1719C50.1344 32.9298 18.0812 32.1071 18.0812 20.8983ZM269.112 79C269.112 79 269.13 78.9765 269.17 78.9312C269.112 78.9765 269.088 79 269.088 79H269.112ZM146.851 14.6222H169.954V2.07538H132.493V76.3311H146.851V44.2417H164.96V31.6949H146.851V14.6222ZM233.605 2.07538H185.739V14.6222H202.49V76.3311H216.852V14.6222H233.605V2.07538ZM113.178 25.9359C113.178 7.63005 103.394 1.04834 89.4547 1.04834C75.5065 1.04834 65.7262 7.63005 65.7262 25.9359V52.4724C65.7262 70.7764 75.5065 77.3581 89.4547 77.3581C103.394 77.3581 113.178 70.7764 113.178 52.4724V25.9359ZM98.8155 54.324C98.8155 62.5475 95.1757 64.8095 89.4547 64.8095C83.7282 64.8095 80.0866 62.5475 80.0866 54.324V24.0879C80.0866 15.8572 83.7282 13.5952 89.4547 13.5952C95.1757 13.5952 98.8155 15.8572 98.8155 24.0879V54.324ZM320.225 70.158L322.409 76.3311H329.904V38.2766H305.448V50.0007H315.545V54.5265C315.545 60.9039 312.213 64.8095 306.805 64.8095C301.082 64.8095 297.437 62.5475 297.437 54.324V24.0879C297.437 15.8572 301.082 13.5952 306.805 13.5952C312.009 13.5952 315.545 16.6799 315.545 26.2469H329.904C329.385 9.37853 321.478 1.04834 306.805 1.04834C292.858 1.04834 283.08 7.63005 283.08 25.9359V52.4724C283.08 70.7764 292.858 77.3581 306.805 77.3581C312.213 77.3581 316.377 74.4777 320.225 70.158ZM370.606 77.3581C384.545 77.3581 394.327 70.7764 394.327 52.4724V25.9359C394.327 7.63005 384.545 1.04834 370.606 1.04834C356.656 1.04834 346.877 7.63005 346.877 25.9359V52.4724C346.877 70.7764 356.656 77.3581 370.606 77.3581ZM361.237 24.0879C361.237 15.8572 364.877 13.5952 370.606 13.5952C376.325 13.5952 379.968 15.8572 379.968 24.0879V54.324C379.968 62.5475 376.325 64.8095 370.606 64.8095C364.877 64.8095 361.237 62.5475 361.237 54.324V24.0879ZM424.695 2.07538L406.065 76.3311H419.909L423.966 60.6959H443.84L447.481 76.3311H461.216L443.111 2.07538H424.695ZM426.568 48.1509L433.643 18.121H433.85L440.824 48.1509H426.568ZM466.319 2.07538V14.6222H483.073V76.3311H497.434V14.6222H514.19V2.07538H466.319Z" fill="white"/>
</g>
</g>
<defs>
<clipPath id="clip0_8_2">
<rect width="515" height="79" fill="white"/>
</clipPath>
</defs>
</svg>
