<svg width="122" height="39" viewBox="0 0 122 39" fill="none" xmlns="http://www.w3.org/2000/svg">
<path d="M85.2188 10.8132V12.062L85.8004 12.2893C88.012 13.1586 88.012 13.1586 88.012 15.3519V20.4573L87.9545 24.4276C87.915 27.2453 87.915 27.2453 86.0337 27.6039L85.4521 27.7176V28.9663H92.9034V27.7176L92.3218 27.6039C90.0905 27.1684 89.9738 27.1684 89.9344 24.4276L89.8769 20.4573V15.3519L101.753 28.9663H103.5V19.3222L103.557 15.3519C103.597 12.4974 103.597 12.4974 105.246 12.1756L105.828 12.062V10.8132H98.8415V12.062L99.4232 12.1756C101.423 12.5727 101.538 12.5727 101.577 15.3519L101.635 19.3222V24.4276L89.7586 10.8132H85.2188Z" fill="white"/>
<path d="M70.704 10.53C65.2704 10.53 61 14.4443 61 20.0604C61 25.5629 65.1143 29.2498 70.3935 29.2498C75.8272 29.2498 80.0975 25.3355 80.0975 19.7194C80.0975 14.217 75.9833 10.53 70.704 10.53ZM70.6465 27.548C66.8625 27.548 64.3782 24.4662 64.3782 19.7771C64.3782 15.1247 66.8034 12.2318 70.4526 12.2318C74.2367 12.2318 76.721 15.3136 76.721 20.0028C76.7194 24.6551 74.2942 27.548 70.6465 27.548Z" fill="white"/>
<path d="M39.4606 10.8132L38.8789 16.4854H40.2755L40.5663 15.7473C41.8857 12.3998 41.8857 12.3998 44.3504 12.3998H46.3878V25.3338C46.3878 27.0916 46.3878 27.0916 43.7687 27.6023L43.1871 27.716V28.9647H52.5017V27.716L51.92 27.6023C49.301 27.0916 49.301 27.0916 49.301 25.3338V12.4014H51.3384C53.9197 12.4014 53.9197 12.4014 55.0057 15.9186L55.1799 16.4854H56.5765V10.8132H39.4606Z" fill="white"/>
<path d="M16.5219 10.8132V12.062L17.1035 12.1756C18.9668 12.5342 18.9668 12.5342 18.9668 14.2184V25.5627C18.9668 27.17 18.9668 27.17 16.7552 27.6055L16.1719 27.7176V28.9663H32.3562L32.9379 23.2942H31.5412L31.2504 23.9746C29.8538 27.2645 29.8538 27.2645 27.4664 27.2645H23.5082C21.7616 27.2645 21.7616 27.2645 21.7616 25.5627V20.3436H23.3916C25.7017 20.3436 25.7017 20.3436 26.0698 22.1591L26.1864 22.7258H27.468V16.4854H26.1864L26.0698 17.0521C25.7198 18.7539 25.7198 18.7539 23.3916 18.7539H21.7616V12.4014H26.8848C29.6402 12.4014 29.6402 12.4014 30.5521 15.3519L30.7263 15.9186H32.1229V10.8132H16.5219Z" fill="white"/>
</svg>
