<?xml version="1.0" encoding="utf-8"?>
<!-- Generator: Adobe Illustrator 26.0.3, SVG Export Plug-In . SVG Version: 6.00 Build 0)  -->
<svg version="1.1" id="artwork" xmlns="http://www.w3.org/2000/svg" xmlns:xlink="http://www.w3.org/1999/xlink" x="0px" y="0px"
	 viewBox="0 0 281.13 99.37" style="enable-background:new 0 0 281.13 99.37;" xml:space="preserve">
<style type="text/css">
	.st0{fill-rule:evenodd;clip-rule:evenodd;fill:#FFFFFF;}
	.st1{fill:#FFFFFF;}
</style>
<g>
	<g>
		<path class="st0" d="M41.92,50.48l24.47-35.7c-1.23-4.52-4.29-8.29-8.35-10.45c-2.76,4.21-5.64,8.65-8.45,12.99
			c-4.1,6.31-8.3,12.79-12.29,18.76c-0.54-2.44-1.09-4.91-1.63-7.35c-1.53-6.87-3.1-13.98-4.7-20.61c-0.27-1.49-0.71-3.2-1.15-4.84
			c-0.07-0.31-0.15-0.6-0.22-0.9H18.44c-1.16,0-2.29,0.13-3.38,0.34c1.09,4.19,2.22,8.66,3.44,13.28c2.95,11.42,6,23.22,8.73,33.23
			c-4.45,6.63-9.59,14.08-14.57,21.31L7.32,78.3c-1.5,2.15-3.15,4.54-4.83,6.97c1.36,4.32,4.46,7.88,8.47,9.9
			c0.46-0.69,0.93-1.36,1.39-2.06c1.48-2.14,2.95-4.29,4.36-6.27C20,82,23.42,76.63,26.76,71.42c1.65-2.57,3.33-5.21,4.99-7.77
			l7.63,33.33h10.89c1.13,0,2.21-0.13,3.28-0.33c-1.52-6.44-3.93-16.03-6.2-24.86C45.56,64.66,43.69,57.18,41.92,50.48z"/>
		<polygon class="st1" points="86.8,84.91 86.8,83.64 86.8,2.37 74.72,2.37 74.72,97 112.12,97 112.12,84.91 88.07,84.91 		"/>
		<path class="st1" d="M220.46,65.3L220.46,65.3c-0.28-0.68-0.6-1.39-0.96-2.14v-0.01c-0.34-0.69-0.75-1.46-1.22-2.29v-0.01
			c-0.96-1.7-2.11-3.42-3.47-5.15v0c-1.34-1.72-2.92-3.48-4.71-5.27l-0.01-0.02c-0.49-0.52-1.31-1.28-2.44-2.26
			c-1.14-1.01-2.55-2.22-4.22-3.6c-1.46-1.19-2.76-2.32-3.88-3.39c-1.12-1.06-2.06-2.05-2.82-2.98c-2-2.38-3.51-4.77-4.51-7.14
			c-1.03-2.43-1.55-4.84-1.55-7.23c0-1.51,0.16-2.92,0.47-4.22c0.32-1.31,0.79-2.5,1.43-3.57v0c0.81-1.38,1.82-2.42,3.03-3.12
			c1.22-0.71,2.6-1.06,4.18-1.06c1.43,0,2.71,0.23,3.84,0.7l0-0.01c1.17,0.48,2.15,1.19,2.96,2.15v0c1.03,1.22,1.85,2.68,2.47,4.36
			c0.47,1.28,0.83,2.69,1.07,4.23l11.6-2.11c-0.2-1.61-0.51-3.15-0.91-4.61c-0.52-1.78-1.19-3.44-2.04-4.97
			c-0.84-1.54-1.81-2.91-2.91-4.09c-1.08-1.17-2.31-2.18-3.67-3.03c-1.74-1.1-3.67-1.92-5.78-2.47c-2.12-0.55-4.45-0.83-6.95-0.83
			c-2.6,0-4.98,0.32-7.13,0.97c-2.13,0.64-4.05,1.6-5.77,2.89v0c-2.8,2.14-4.9,4.79-6.29,7.93c-1.41,3.18-2.12,6.89-2.12,11.14
			c0,2.35,0.26,4.62,0.78,6.79h-0.01c0.52,2.16,1.29,4.25,2.34,6.26c0.98,1.8,2.3,3.73,3.96,5.77c1.69,2.06,3.72,4.24,6.11,6.56
			l7.59,7.21c2.07,1.95,3.86,3.65,5.42,5.12l0.06,0.07c3.9,4.23,5.85,8.52,5.85,12.89c0,1.49-0.14,2.81-0.4,3.99
			c-0.27,1.2-0.7,2.24-1.27,3.12c-1.06,1.7-2.31,2.99-3.76,3.88c-1.46,0.9-3.1,1.38-4.92,1.45c-1.34,0.06-2.61-0.17-3.8-0.71
			c-1.16-0.52-2.24-1.33-3.24-2.42c-1.3-1.4-2.36-3.2-3.16-5.41c-0.68-1.85-1.19-3.97-1.52-6.4l-11.47,0.83
			c0.18,2.05,0.48,4.01,0.91,5.87c0.53,2.23,1.23,4.3,2.11,6.23c0.87,1.89,1.91,3.61,3.09,5.12c1.18,1.49,2.51,2.79,3.99,3.88
			l0.01,0c1.76,1.34,3.76,2.34,5.99,3.01c2.26,0.67,4.77,1.02,7.52,1.02c2.97,0,5.56-0.35,7.75-1.04h0.01
			c2.05-0.63,3.86-1.48,5.43-2.56c1.56-1.06,2.9-2.35,4-3.87l0.01-0.01c1.73-2.29,3.01-4.81,3.85-7.55
			c0.83-2.77,1.24-5.77,1.18-9.02c-0.02-1.28-0.2-2.65-0.56-4.12C221.64,68.54,221.12,66.97,220.46,65.3z"/>
		<polygon class="st1" points="266.56,2.37 266.56,42.36 266.56,43.64 265.28,43.64 247.6,43.64 246.33,43.64 246.33,42.36 
			246.33,2.37 234.24,2.37 234.24,97 246.33,97 246.33,57.11 246.33,55.84 247.6,55.84 265.28,55.84 266.56,55.84 266.56,57.11 
			266.56,97 278.65,97 278.65,2.37 		"/>
		<path class="st1" d="M136.06,2.37L119.97,97h12.7l3.41-21.31l0.17-1.07h1.08h15.29h1.09l0.17,1.08l3.25,21.3h12.8L154.08,2.37
			H136.06z M150.42,62.86h-10.86h-1.46l0.2-1.45l5.43-38.21l1.25-8.84l1.26,8.83l5.44,38.22l0.22,1.45H150.42z"/>
	</g>
</g>
</svg>
