<svg width="101" height="12" viewBox="0 0 101 12" fill="none" xmlns="http://www.w3.org/2000/svg">
<g clip-path="url(#clip0)">
<path d="M0.402207 9.99844L0.25 9.84623L1.46766 8.47637L1.61986 8.32416L1.77207 8.47637C2.53311 9.08519 3.75076 9.54181 4.81621 9.54181C5.42504 9.54181 6.03387 9.38961 6.33828 9.2374C6.64269 8.93299 6.7949 8.62857 6.7949 8.32416C6.7949 7.71533 6.49049 7.25871 5.42504 7.1065C4.96842 7.1065 4.5118 6.9543 3.90297 6.9543C1.77207 6.64988 0.706621 5.43223 0.706621 3.75795C0.706621 2.84471 1.01104 1.93146 1.77207 1.32264C2.68531 0.409394 3.59855 0.10498 4.96842 0.10498C6.49049 0.10498 7.70814 0.561601 8.77359 1.32264L8.9258 1.47484L7.70814 3.14912L7.55594 2.99691C6.64269 2.54029 5.72945 2.23588 4.81621 2.23588C4.35959 2.23588 3.90297 2.38809 3.59855 2.54029C3.29414 2.6925 3.14193 2.99691 3.14193 3.45353C3.14193 3.91016 3.44635 4.51898 4.5118 4.67119C4.81621 4.67119 5.27283 4.8234 5.88166 4.8234C8.16476 5.12781 9.23021 6.64988 9.23021 8.17195C9.23021 9.2374 8.77359 10.1506 8.01256 10.6073C7.25152 11.2161 6.18607 11.5205 4.96842 11.5205C3.14193 11.5205 1.61986 11.0639 0.402207 9.99844Z" fill="white"/>
<path d="M16.8406 3.30133L18.2104 7.25871H15.4707L16.8406 3.30133ZM15.9273 0.257187L11.6655 11.3683H13.9486L14.8619 8.93299H18.8193L19.7325 11.3683H22.0156L17.7538 0.10498H15.9273V0.257187Z" fill="white"/>
<path d="M31.9089 0.25708V7.41081L27.0383 0.25708H25.0596V0.409287V11.3682H27.3427V4.21446L32.0612 11.3682H34.0398V0.25708H31.9089Z" fill="white"/>
<path d="M42.2591 11.3682H38.1495V0.409287V0.25708H42.4113C43.9333 0.25708 45.3032 0.865908 46.0642 2.23577C46.3687 2.69239 46.5209 2.99681 46.6731 3.60563C46.8253 4.06226 46.8253 4.82329 46.8253 5.88874C46.8253 7.1064 46.8253 7.86743 46.6731 8.32405C46.5209 8.78067 46.3687 9.23729 46.0642 9.54171C45.3032 10.6072 44.0856 11.3682 42.2591 11.3682ZM42.2591 9.54171C43.1723 9.54171 43.7811 9.23729 44.2378 8.62847C44.39 8.32405 44.39 8.17184 44.5422 7.86743C44.5422 7.56302 44.5422 6.95419 44.5422 5.88874C44.5422 4.9755 44.5422 4.36667 44.39 3.91005C44.39 3.45343 44.2378 3.30122 43.9333 2.99681C43.4767 2.38798 43.0201 2.23577 42.1069 2.23577H40.2804V9.54171H42.2591Z" fill="white"/>
<path d="M68.5911 0.25708L66.1557 8.01964L63.7204 0.25708H61.4373L65.2425 11.3682H66.9168L70.8742 0.25708H68.5911Z" fill="white"/>
<path d="M74.3749 0.25708V0.409287V11.3682H76.658V0.25708H74.3749Z" fill="white"/>
<path d="M80.1586 9.99844L80.0064 9.84623L81.2241 8.47637L81.3763 8.32416L81.5285 8.47637C82.2895 9.08519 83.5072 9.54181 84.5726 9.54181C85.1815 9.54181 85.7903 9.38961 86.0947 9.2374C86.3991 8.93299 86.5513 8.62857 86.5513 8.32416C86.5513 7.71533 86.2469 7.25871 85.1815 7.1065C84.7248 7.1065 84.2682 6.9543 83.6594 6.9543C81.5285 6.64988 80.463 5.43223 80.463 3.75795C80.463 2.84471 80.7675 1.93146 81.5285 1.32264C82.4417 0.409394 83.5072 0.10498 84.7248 0.10498C86.2469 0.10498 87.4646 0.561602 88.53 1.32264L88.6822 1.47484L87.4646 3.14912L87.3124 2.99691C86.5513 2.54029 85.6381 2.23588 84.5726 2.23588C84.116 2.23588 83.6594 2.38809 83.355 2.54029C83.0506 2.6925 82.8984 3.14912 82.8984 3.60574C82.8984 4.06236 83.2028 4.67119 84.2682 4.8234C84.5726 4.8234 85.0293 4.97561 85.4859 4.97561C87.769 5.28002 88.8344 6.80209 88.8344 8.32416C88.8344 9.38961 88.3778 10.3029 87.6168 10.7595C86.8557 11.3683 85.7903 11.6727 84.5726 11.6727C83.0506 11.5205 81.3763 11.0639 80.1586 9.99844Z" fill="white"/>
<path d="M91.8787 0.25708V2.08356H94.9229V11.3682H97.206V2.08356H100.25V0.25708H91.8787Z" fill="white"/>
<path d="M59.0018 9.69402H59.154V11.6727H59.0018C58.5452 11.6727 57.9364 11.6727 56.8709 10.9117C56.2621 11.2161 55.501 11.5205 54.5878 11.5205C52.7613 11.5205 51.3915 10.4551 50.7826 9.54181C50.6304 9.2374 50.4782 8.93299 50.326 8.47637C50.1738 8.01975 50.1738 7.25871 50.1738 5.88885C50.1738 4.51898 50.1738 3.91016 50.326 3.30133C50.4782 2.84471 50.4782 2.54029 50.7826 2.23588C51.3915 1.17043 52.6091 0.10498 54.5878 0.10498C56.4143 0.10498 57.7842 1.17043 58.393 2.08367C58.5452 2.38809 58.6974 2.6925 58.8496 3.14912C59.0018 3.60574 59.0018 4.36678 59.0018 5.73664C59.0018 7.1065 59.0018 7.71533 58.8496 8.32416C58.6974 8.78078 58.6974 9.08519 58.393 9.38961C58.393 9.38961 58.393 9.38961 58.393 9.54181C58.5452 9.69402 58.6974 9.69402 59.0018 9.69402ZM54.5878 9.54181C54.8922 9.54181 55.0444 9.54182 55.1966 9.38961C54.8922 9.08519 54.5878 8.78078 54.2834 8.32416C53.8268 7.71533 53.0657 7.41092 52.4569 7.25871C52.4569 8.17195 52.6091 8.32416 52.9135 8.78078C53.2179 9.08519 53.8268 9.38961 54.5878 9.54181ZM54.5878 2.23588C53.8268 2.23588 53.3701 2.54029 53.0657 2.99691C52.9135 3.30133 52.7613 3.45354 52.6091 3.75795C52.4569 4.06236 52.4569 4.51898 52.4569 5.43223C53.5224 5.43223 55.0444 5.88885 55.9577 7.1065C56.1099 7.41092 56.4143 7.71533 56.5665 7.86754C56.5665 7.41092 56.7187 6.80209 56.7187 5.73664C56.7187 4.67119 56.7187 4.06236 56.5665 3.60574C56.4143 3.14912 56.4143 2.99691 56.1099 2.84471C55.8055 2.54029 55.3488 2.23588 54.5878 2.23588Z" fill="white"/>
</g>
<defs>
<clipPath id="clip0">
<rect width="100" height="11.5677" fill="white" transform="translate(0.25 0.10498)"/>
</clipPath>
</defs>
</svg>
