<svg width="151" height="22" viewBox="0 0 151 22" fill="none" xmlns="http://www.w3.org/2000/svg">
<g clip-path="url(#clip0)">
<path d="M9.85208 2.83402C6.1846 6.12924 6.00122 10.7059 4.16748 14.9165C3.43399 9.97367 2.51711 5.39697 1.78362 0.637207C1.41687 0.637207 1.2335 0.637207 1.05012 0.637207C0.866748 0.820275 0.683374 0.820275 0.5 1.00334C1.60024 7.04458 2.51711 12.9028 3.61736 19.1271C6.73472 14.7334 6.55134 9.42446 9.48533 5.03084C10.7689 9.05833 10.7689 13.2689 10.9523 17.1133C11.3191 17.1133 11.5024 17.1133 11.6858 17.1133C11.8692 17.1133 11.8692 17.1133 12.2359 16.9302C12.0526 12.9028 12.0526 8.50912 10.7689 4.48163C10.5856 3.93243 10.2188 3.56629 9.85208 2.83402Z" fill="white"/>
<path d="M49.2774 8.69222C48.1772 8.69222 47.4437 9.24143 46.8936 10.3398C46.7102 10.706 46.5268 11.2552 46.3434 11.6213C45.6099 11.9874 44.3263 10.889 44.5097 12.7197C45.0598 12.9028 45.6099 13.0858 45.9767 13.0858C45.9767 15.2827 45.9767 17.2964 45.9767 19.1271C48.7273 20.4086 50.561 19.1271 52.5782 17.4795C52.3948 17.1133 52.2114 16.7472 51.8447 16.3811C51.2945 16.7472 51.1112 16.9303 50.561 17.2964C49.8275 17.6625 48.9107 18.2117 48.1772 18.3948C47.6271 18.5779 47.0769 18.3948 47.0769 17.6625C47.0769 16.198 47.2603 14.9165 47.2603 13.452C50.3777 13.452 53.3117 14.3673 56.2456 13.6351C55.6955 10.3398 52.9449 8.50915 49.2774 8.69222ZM47.8104 11.9874C47.9938 10.1568 48.3606 9.79063 49.8275 9.9737C51.6613 10.1568 53.3117 10.706 54.5953 12.5366C52.3948 12.3536 50.0109 12.1705 47.8104 11.9874Z" fill="white"/>
<path d="M101.539 13.4519C100.255 13.4519 98.9718 13.2688 97.6882 13.2688C96.9547 13.2688 96.588 12.9027 96.4046 12.3535C95.6711 10.3397 94.9376 8.32596 94.2041 6.12915C93.4706 8.32596 92.5537 10.3397 91.8202 12.3535C91.2701 12.3535 90.9034 12.1704 90.3532 12.1704C90.3532 12.5365 90.1699 12.9027 90.1699 13.2688C90.72 13.2688 91.0867 13.4519 91.4535 13.4519C91.2701 15.0995 91.0867 16.7471 90.72 18.5778C91.2701 18.5778 91.6369 18.5778 92.0036 18.5778C92.187 16.9302 92.5537 15.4656 92.7371 13.818C94.7542 13.818 96.0378 14.1841 96.7713 16.1979C97.3215 17.6624 98.0549 18.9439 98.7884 20.4084C99.1552 20.2254 99.5219 20.0423 99.8887 19.6762C98.9718 17.8455 98.2383 16.1979 97.3215 14.3672C98.7884 14.3672 100.072 14.3672 101.539 14.3672C101.722 14.1841 101.539 13.818 101.539 13.4519ZM93.2872 12.5365C93.4706 11.6212 93.8373 10.8889 94.0207 9.79051C94.3875 10.8889 94.7542 11.8043 95.121 12.9027C94.5708 12.7196 94.0207 12.7196 93.2872 12.5365Z" fill="white"/>
<path d="M29.6565 2.46794C29.4731 2.65101 29.4731 2.65101 29.2897 2.83408C30.9401 4.84782 31.857 7.41077 32.4071 9.79065C31.4902 9.79065 30.5733 9.42452 29.8398 9.42452C28.3729 9.60759 27.2726 10.1568 26.7225 11.6213C26.1724 13.0859 26.5391 14.5504 27.6394 15.8319C29.2897 17.6626 31.4902 18.2118 33.8741 17.8456C34.2408 12.1705 34.0575 6.86157 30.2066 2.10181C30.0232 2.28487 29.8398 2.46794 29.6565 2.46794ZM32.5905 13.6351C32.4071 14.5504 32.5905 15.4658 32.5905 16.5642C30.2066 16.7472 28.1895 15.2827 27.8227 13.2689C27.6394 12.3536 28.0061 11.4383 28.923 11.0721C29.8398 10.706 30.5733 10.5229 31.4902 11.0721C32.4071 11.8044 32.7738 12.5367 32.5905 13.6351Z" fill="white"/>
<path d="M74.3997 3.20025C74.3997 2.83412 73.8496 2.65105 73.4828 2.28491C73.4828 2.46798 73.2994 2.46798 73.1161 2.65105C73.2994 3.93252 73.2994 5.39707 73.4828 6.67854C73.8496 9.05842 74.2163 11.6214 74.3997 14.0013C74.583 15.0997 74.0329 16.1981 73.2994 16.9303C69.9987 19.8594 65.4143 18.761 63.5806 14.9166L63.3972 14.7335C63.0305 14.9166 62.8471 14.9166 62.4804 15.0997C62.4804 15.2827 62.4804 15.4658 62.4804 15.4658C63.764 19.1272 66.8813 20.4086 71.0989 19.4933C74.9498 18.5779 76.4168 16.5642 75.8667 12.7198C75.3165 9.42456 74.9498 6.3124 74.3997 3.20025Z" fill="white"/>
<path d="M80.6343 13.8182C79.3507 13.0859 79.3507 11.8044 79.9008 10.8891C80.0842 11.0722 80.0842 11.6214 80.2676 11.6214C82.1013 11.9875 83.9351 12.1706 85.9522 12.5367C85.9522 10.8891 85.9522 9.60761 85.9522 8.14307C84.1184 8.32613 82.2847 8.32613 80.6343 8.69227C77.8837 9.42454 77.1502 12.3536 79.1673 14.3674C79.7175 14.9166 80.6343 15.4658 81.5512 15.8319C83.3849 16.1981 85.2187 16.5642 87.0524 16.7473C87.0524 16.7473 87.2358 16.7473 87.4192 16.5642C87.4192 16.198 87.4192 15.8319 87.4192 15.4658C86.1356 15.2827 85.0353 15.2827 83.9351 14.9166C82.8348 14.9166 81.7346 14.5504 80.6343 13.8182ZM84.6686 9.42454C84.6686 10.1568 84.6686 10.5229 84.6686 11.2552C83.2016 11.0722 81.9179 10.706 80.6343 10.5229C80.6343 10.3399 80.6343 10.1568 80.6343 9.97374C81.9179 9.79068 83.2016 9.60761 84.6686 9.42454Z" fill="white"/>
<path d="M111.808 10.3398C108.874 10.706 108.691 13.452 107.407 15.4657C107.04 12.9028 106.857 10.3398 104.106 9.05835C103.923 9.60755 103.74 9.79062 103.74 10.1568C105.573 11.0721 105.757 12.9028 105.94 14.5504C106.123 16.3811 106.49 18.3948 106.673 20.2255C106.857 20.2255 106.857 20.2255 107.04 20.2255C108.14 17.4795 109.057 14.5504 110.708 11.9874C110.891 11.9874 111.074 11.9874 111.074 11.9874C111.625 14.3673 112.175 16.7472 112.908 19.3101C113.275 19.1271 113.642 19.1271 114.192 18.944C113.642 16.5641 112.908 14.1842 112.358 11.8044C112.358 11.4382 111.991 10.889 111.808 10.3398Z" fill="white"/>
<path d="M115.476 12.7196C117.676 13.2688 119.877 13.6349 122.26 14.1841C121.71 15.2825 121.16 16.1979 120.427 17.1132C119.326 18.2116 118.043 19.127 116.759 20.2254C116.759 20.2254 116.759 20.4084 116.576 20.5915C116.943 20.7746 117.126 20.9576 117.309 21.1407C118.41 20.2254 119.143 19.127 120.243 18.5778C122.811 17.2963 122.994 14.7333 124.278 12.7196C121.894 12.5365 119.877 12.3534 117.859 12.1704C117.859 11.9873 117.859 11.8042 117.859 11.8042C119.693 10.1566 122.077 10.3397 124.461 10.5228C124.461 10.1566 124.461 9.7905 124.461 9.42436C120.793 8.32595 117.309 9.60743 115.476 12.7196Z" fill="white"/>
<path d="M150.5 13.6351C150.5 13.269 150.5 12.5367 150.317 11.8044C149.767 10.706 149.4 9.42456 148.483 8.69229C147.016 7.41081 144.999 7.96002 143.532 9.97376C142.065 11.8044 142.248 14.1843 144.082 15.4658C145.182 16.1981 146.466 16.5642 147.566 16.9303C149.4 17.4795 150.133 16.7473 150.317 14.7335C150.5 14.5505 150.5 14.1843 150.5 13.6351ZM149.216 14.7335C149.216 15.4658 148.85 16.015 147.933 15.6489C147.199 15.4658 146.282 15.2827 145.549 14.9166C144.449 14.3674 143.899 13.4521 144.082 12.1706C144.265 10.8891 145.366 9.7907 146.466 9.60763C147.566 9.42456 148.3 9.97376 148.666 10.8891C149.033 11.8044 149.033 12.7198 149.4 13.6351C149.4 13.6351 149.4 13.6351 149.216 13.6351C149.216 14.0013 149.216 14.3674 149.216 14.7335Z" fill="white"/>
<path d="M22.1382 13.0857C21.7715 14.1842 21.4047 15.2826 20.8546 16.1979C19.7544 17.8455 17.5539 17.6624 16.637 15.8318C16.4536 15.0995 16.2703 14.3672 16.0869 13.818C15.9035 12.5365 15.7201 11.2551 15.5368 9.97359C15.3534 9.97359 15.3534 9.79053 15.17 9.79053C14.9866 10.1567 14.4365 10.5228 14.4365 10.7059C14.6199 12.5365 14.9866 14.3672 15.5368 16.0148C15.9035 17.4794 16.8204 18.3947 18.4708 18.5778C20.1211 18.7609 21.5881 18.2116 22.1382 16.564C23.0551 14.7334 23.6052 12.9027 24.1554 10.8889C23.6052 10.7059 23.2385 10.5228 22.6884 10.5228C22.6884 11.6212 22.505 12.3535 22.1382 13.0857Z" fill="white"/>
<path d="M137.114 16.3811C136.197 16.015 134.913 15.6489 134.18 15.0997C132.529 13.8182 132.896 12.1706 134.73 11.2552C135.28 10.8891 136.013 10.706 136.747 10.523C136.563 10.1568 136.38 9.7907 136.197 9.42456C135.463 9.60763 134.913 9.7907 134.363 10.1568C131.429 11.4383 130.879 14.7335 133.629 16.5642C134.913 17.4795 136.563 17.6626 138.214 18.0287C138.397 18.0287 138.397 18.0287 138.581 17.8457C138.581 17.4795 138.581 17.1134 138.581 16.7473C138.03 16.5642 137.48 16.5642 137.114 16.3811Z" fill="white"/>
<path d="M38.2752 10.706C37.5417 10.5229 37.1749 10.5229 36.9916 11.4383C36.6248 15.0996 39.5588 18.5779 43.2263 19.1271C43.4096 18.761 43.4097 18.3949 43.593 18.2118C39.0087 15.8319 38.6419 15.4658 38.2752 10.706Z" fill="white"/>
<path d="M37.5416 3.93237C37.1748 3.93237 36.8081 3.93237 36.4413 3.93237C36.4413 4.84771 36.4413 5.76305 36.4413 6.67839C36.8081 6.67839 37.1748 6.67839 37.5416 6.67839C37.5416 5.76305 37.5416 4.84771 37.5416 3.93237Z" fill="white"/>
</g>
<defs>
<clipPath id="clip0">
<rect width="150" height="20.5036" fill="white" transform="translate(0.5 0.637207)"/>
</clipPath>
</defs>
</svg>
