<svg width="24" height="22" viewBox="0 0 24 22" fill="none" xmlns="http://www.w3.org/2000/svg">
<path d="M13.99 0C8.47 0 4 4.48 4 10C4 15.52 8.47 20 13.99 20C19.52 20 24 15.52 24 10C24 4.48 19.52 0 13.99 0ZM20.92 6H17.97C17.65 4.75 17.19 3.55 16.59 2.44C18.43 3.07 19.96 4.35 20.92 6ZM14 2.04C14.83 3.24 15.48 4.57 15.91 6H12.09C12.52 4.57 13.17 3.24 14 2.04ZM6.26 12C6.1 11.36 6 10.69 6 10C6 9.31 6.1 8.64 6.26 8H9.64C9.56 8.66 9.5 9.32 9.5 10C9.5 10.68 9.56 11.34 9.64 12H6.26ZM7.08 14H10.03C10.35 15.25 10.81 16.45 11.41 17.56C9.57 16.93 8.04 15.66 7.08 14ZM10.03 6H7.08C8.04 4.34 9.57 3.07 11.41 2.44C10.81 3.55 10.35 4.75 10.03 6ZM14 17.96C13.17 16.76 12.52 15.43 12.09 14H15.91C15.48 15.43 14.83 16.76 14 17.96ZM16.34 12H11.66C11.57 11.34 11.5 10.68 11.5 10C11.5 9.32 11.57 8.65 11.66 8H16.34C16.43 8.65 16.5 9.32 16.5 10C16.5 10.68 16.43 11.34 16.34 12ZM16.59 17.56C17.19 16.45 17.65 15.25 17.97 14H20.92C19.96 15.65 18.43 16.93 16.59 17.56ZM18.36 12C18.44 11.34 18.5 10.68 18.5 10C18.5 9.32 18.44 8.66 18.36 8H21.74C21.9 8.64 22 9.31 22 10C22 10.69 21.9 11.36 21.74 12H18.36Z" fill="black"/>
<circle cx="2.5" cy="19.5" r="2.5" fill="black"/>
</svg>
