<svg width="100" height="32" viewBox="0 0 100 32" fill="none" xmlns="http://www.w3.org/2000/svg">
<path d="M3.38 31.72C5.246 31.72 6.759 30.1894 6.759 28.3014C6.759 26.4134 5.246 24.8829 3.38 24.8829C1.514 24.8829 0.00100708 26.4134 0.00100708 28.3014C0.00100708 30.1894 1.514 31.72 3.38 31.72V31.72Z" fill="white"/>
<path d="M14.56 22.352C16.802 22.352 18.524 20.8399 19.141 19.3279L22.066 21.2344C20.571 23.8969 17.907 25.7705 14.366 25.7705C9.655 25.7705 5.366 21.9904 5.366 16.4682C5.366 10.9788 9.655 7.1658 14.366 7.1658C17.939 7.1658 20.571 9.0723 22.033 11.7348L19.109 13.6413C18.524 12.1293 16.835 10.6172 14.56 10.6172C10.987 10.6172 9.037 13.2797 9.037 16.501C9.037 19.7223 10.987 22.352 14.56 22.352V22.352Z" fill="white"/>
<path d="M26.35 17.421C26.35 20.0835 28.234 22.3516 31.418 22.3516C33.66 22.3516 35.219 21.2011 35.772 19.6891L38.923 21.2011C37.429 23.8636 34.797 25.7701 31.223 25.7701C26.545 25.7701 22.581 21.99 22.581 16.4678C22.581 10.9784 26.317 7.16541 31.223 7.16541C35.739 7.16541 39.475 10.7812 39.475 16.2705L39.085 17.421H26.35V17.421ZM26.545 14.1011H35.544C35.349 12.1289 33.465 10.6168 31.223 10.6168C28.591 10.6168 27.097 12.1289 26.545 14.1011Z" fill="white"/>
<path d="M41.55 7.56H44.929L45.319 9.072L45.514 9.26923L45.709 9.072C46.456 7.9215 48.341 7.1655 49.835 7.1655C54.351 7.1655 56.95 10.1896 56.95 14.3642V25.3762H53.214V14.3972C53.117 11.9648 51.947 10.6171 49.478 10.6171C47.269 10.6171 45.417 12.425 45.352 14.6273V25.4093H41.615V7.5603H41.55V7.56Z" fill="white"/>
<path d="M57.86 7.5602H61.271V3.7801L64.228 0H64.943V7.5931H68.744V10.9787H64.943V20.0839C64.943 21.2343 65.722 21.9903 66.86 21.9903L69.101 21.5959V25.0144L67.022 25.4089C63.286 25.4089 61.239 23.5024 61.239 20.0839V10.9787H57.828V7.5602H57.86V7.5602Z" fill="white"/>
<path d="M71.38 7.5603H74.758L75.148 9.4668L75.343 9.66402L75.538 9.4668C76.675 7.9548 78.17 7.1987 79.664 7.1987C80.412 7.1987 80.801 7.1987 81.549 7.59315V10.9788H79.307C77.098 10.9788 75.246 12.7866 75.181 14.9889V25.3759H71.445V7.55995H71.38V7.5603Z" fill="white"/>
<path d="M99.12 25.409H95.741L95.351 23.8969L95.156 23.6997L94.961 23.8969C93.824 25.0474 91.972 25.8034 90.088 25.8034C85.214 25.8034 81.088 22.0233 81.088 16.5011C81.088 11.0117 85.214 7.1987 90.088 7.1987C91.972 7.1987 93.824 7.95472 94.961 9.1052L95.156 9.30242L95.351 9.1052L95.741 7.5932H99.12V25.4092V25.409ZM90.315 10.617C86.741 10.617 84.824 13.2795 84.824 16.5008C84.824 19.7221 86.741 22.3846 90.315 22.3846C93.499 22.3846 95.741 19.7221 95.741 16.5008C95.741 13.2466 93.499 10.617 90.315 10.617V10.617Z" fill="white"/>
</svg>
