<svg viewBox="0 0 301 32" width="301" height="32" xmlns="http://www.w3.org/2000/svg">
<path d="m4.1667 30.789c2.3012 0 4.1667-1.8522 4.1667-4.1369s-1.8655-4.1369-4.1667-4.1369c-2.3012 0-4.1667 1.8522-4.1667 4.1369s1.8655 4.1369 4.1667 4.1369z" fill="#fff"/>
<path d="m17.833 19.537c2.6667 0 4.8334-1.8203 5.6667-3.6405l3.5 2.3167c-1.8333 3.144-5.1667 5.4606-9.5 5.4606-5.8333 0-11-4.4678-11-11.087 0-6.619 5.1667-11.087 11-11.087 4.3333 0 7.6667 2.3166 9.3333 5.4607l-3.5 2.1512c-0.6666-1.8202-2.8333-3.6404-5.5-3.6404-4.3333 0-6.8333 3.144-6.8333 7.1154 0 3.9714 2.5 6.95 6.8333 6.95z" fill="#fff"/>
<path d="m104.38 31.72c1.866 0 3.379-1.5306 3.379-3.4186s-1.513-3.4185-3.379-3.4185-3.379 1.5305-3.379 3.4185 1.513 3.4186 3.379 3.4186z"/>
<path d="m115.56 22.352c2.242 0 3.964-1.5121 4.581-3.0241l2.925 1.9065c-1.495 2.6625-4.159 4.5361-7.7 4.5361-4.711 0-9-3.7801-9-9.3023 0-5.4894 4.289-9.3024 9-9.3024 3.573 0 6.205 1.9065 7.667 4.569l-2.924 1.9065c-0.585-1.512-2.274-3.0241-4.549-3.0241-3.573 0-5.523 2.6625-5.523 5.8838s1.95 5.851 5.523 5.851z"/>
<path d="m127.35 17.421c0 2.6625 1.884 4.9306 5.068 4.9306 2.242 0 3.801-1.1505 4.354-2.6625l3.151 1.512c-1.494 2.6625-4.126 4.569-7.7 4.569-4.678 0-8.642-3.7801-8.642-9.3023 0-5.4894 3.736-9.3024 8.642-9.3024 4.516 0 8.252 3.6158 8.252 9.1051l-0.39 1.1505h-12.735zm0.195-3.3199h8.999c-0.195-1.9722-2.079-3.4843-4.321-3.4843-2.632 0-4.126 1.5121-4.678 3.4843z"/>
<path d="m142.55 7.56h3.379l0.39 1.512 0.195 0.19723 0.195-0.19723c0.747-1.1505 2.632-1.9065 4.126-1.9065 4.516 0 7.115 3.0241 7.115 7.1987v11.012h-3.736v-10.979c-0.097-2.4324-1.267-3.7801-3.736-3.7801-2.209 0-4.061 1.8079-4.126 4.0102v10.782h-3.737v-17.849h-0.065z"/>
<path d="m158.86 7.5602h3.411v-3.7801l2.957-3.7801h0.715v7.5931h3.801v3.3856h-3.801v9.1052c0 1.1504 0.779 1.9064 1.917 1.9064l2.241-0.3944v3.4185l-2.079 0.3945c-3.736 0-5.783-1.9065-5.783-5.325v-9.1052h-3.411v-3.4185h0.032z"/>
<path d="m172.38 7.5603h3.378l0.39 1.9065 0.195 0.19722 0.195-0.19722c1.137-1.512 2.632-2.2681 4.126-2.2681 0.748 0 1.137 0 1.885 0.39445v3.3856h-2.242c-2.209 0-4.061 1.8079-4.126 4.0102v10.387h-3.736v-17.816h-0.065z"/>
<path d="m200.12 25.409h-3.379l-0.39-1.5121-0.195-0.1972-0.195 0.1972c-1.137 1.1505-2.989 1.9065-4.873 1.9065-4.874 0-9-3.7801-9-9.3023 0-5.4894 4.126-9.3024 9-9.3024 1.884 0 3.736 0.75602 4.873 1.9065l0.195 0.19722 0.195-0.19722 0.39-1.512h3.379v17.816zm-8.805-14.792c-3.574 0-5.491 2.6625-5.491 5.8838s1.917 5.8838 5.491 5.8838c3.184 0 5.426-2.6625 5.426-5.8838 0-3.2542-2.242-5.8838-5.426-5.8838z"/>
<path d="m204.38 31.72c1.866 0 3.379-1.5306 3.379-3.4186s-1.513-3.4185-3.379-3.4185-3.379 1.5305-3.379 3.4185 1.513 3.4186 3.379 3.4186z" fill="#fff"/>
<path d="m215.56 22.352c2.242 0 3.964-1.5121 4.581-3.0241l2.925 1.9065c-1.495 2.6625-4.159 4.5361-7.7 4.5361-4.711 0-9-3.7801-9-9.3023 0-5.4894 4.289-9.3024 9-9.3024 3.573 0 6.205 1.9065 7.667 4.569l-2.924 1.9065c-0.585-1.512-2.274-3.0241-4.549-3.0241-3.573 0-5.523 2.6625-5.523 5.8838s1.95 5.851 5.523 5.851z" fill="#fff"/>
<path d="m227.35 17.421c0 2.6625 1.884 4.9306 5.068 4.9306 2.242 0 3.801-1.1505 4.354-2.6625l3.151 1.512c-1.494 2.6625-4.126 4.569-7.7 4.569-4.678 0-8.642-3.7801-8.642-9.3023 0-5.4894 3.736-9.3024 8.642-9.3024 4.516 0 8.252 3.6158 8.252 9.1051l-0.39 1.1505h-12.735zm0.195-3.3199h8.999c-0.195-1.9722-2.079-3.4843-4.321-3.4843-2.632 0-4.126 1.5121-4.678 3.4843z" fill="#fff"/>
<path d="m242.55 7.56h3.379l0.39 1.512 0.195 0.19723 0.195-0.19723c0.747-1.1505 2.632-1.9065 4.126-1.9065 4.516 0 7.115 3.0241 7.115 7.1987v11.012h-3.736v-10.979c-0.097-2.4324-1.267-3.7801-3.736-3.7801-2.209 0-4.061 1.8079-4.126 4.0102v10.782h-3.737v-17.849h-0.065z" fill="#fff"/>
<path d="m258.86 7.5602h3.411v-3.7801l2.957-3.7801h0.715v7.5931h3.801v3.3856h-3.801v9.1052c0 1.1504 0.779 1.9064 1.917 1.9064l2.241-0.3944v3.4185l-2.079 0.3945c-3.736 0-5.783-1.9065-5.783-5.325v-9.1052h-3.411v-3.4185h0.032z" fill="#fff"/>
<path d="m272.38 7.5603h3.378l0.39 1.9065 0.195 0.19722 0.195-0.19722c1.137-1.512 2.632-2.2681 4.126-2.2681 0.748 0 1.137 0 1.885 0.39445v3.3856h-2.242c-2.209 0-4.061 1.8079-4.126 4.0102v10.387h-3.736v-17.816h-0.065z" fill="#fff"/>
<path d="m300.12 25.409h-3.379l-0.39-1.5121-0.195-0.1972-0.195 0.1972c-1.137 1.1505-2.989 1.9065-4.873 1.9065-4.874 0-9-3.7801-9-9.3023 0-5.4894 4.126-9.3024 9-9.3024 1.884 0 3.736 0.75602 4.873 1.9065l0.195 0.19722 0.195-0.19722 0.39-1.512h3.379v17.816zm-8.805-14.792c-3.574 0-5.491 2.6625-5.491 5.8838s1.917 5.8838 5.491 5.8838c3.184 0 5.426-2.6625 5.426-5.8838 0-3.2542-2.242-5.8838-5.426-5.8838z" fill="#fff"/>
</svg>

