<svg width="320" height="320" viewBox="0 0 320 320" fill="none" xmlns="http://www.w3.org/2000/svg">
<path d="M243.937 0H76.0624C34.0543 0 0 34.0543 0 76.0624V243.937C0 285.945 34.0543 319.999 76.0624 319.999H243.937C285.945 319.999 319.999 285.945 319.999 243.937V76.0624C319.999 34.0543 285.945 0 243.937 0Z" fill="white"/>
<path d="M256.683 95.772C196.873 90.0578 198.016 37.4863 198.016 37.4863H159.452V203.508C158.479 221.263 143.798 235.162 126.016 235.162C107.523 235.162 92.5307 220.17 92.5307 201.677C92.5307 183.183 107.523 168.191 126.016 168.191C129.919 168.191 133.792 168.874 137.46 170.208L137.838 126.374C133.756 125.682 129.623 125.334 125.483 125.334C84.6664 125.334 51.5781 158.422 51.5781 199.239C51.5781 240.055 84.6664 273.143 125.483 273.143C164.906 273.143 197.388 242.2 199.301 202.824V116.343C199.301 116.343 220.492 134.629 256.683 135.391V95.772Z" fill="black"/>
</svg>
