<svg width="20" height="20" viewBox="0 0 20 20" fill="none" xmlns="http://www.w3.org/2000/svg">
<g clip-path="url(#clip0_1_2)">
<path d="M10.081 1.78861H14.146C15.1217 1.78861 15.6095 1.95121 15.9347 2.11381C16.4225 2.27641 16.7477 2.43901 17.0729 2.92682C17.3981 3.25202 17.5607 3.57723 17.8859 4.06502C18.0485 4.39022 18.2111 4.87803 18.2111 5.85362V13.9836C18.2111 14.9593 18.0485 15.4471 17.8859 15.7723C17.7233 16.2601 17.5607 16.5853 17.0729 16.9105C16.7477 17.2357 16.4225 17.3983 15.9347 17.7235C15.6095 17.8861 15.1217 18.0487 14.146 18.0487H6.016C5.04039 18.0487 4.5526 17.8861 4.2274 17.7235C3.7396 17.5609 3.41439 17.3983 3.0892 16.9105C2.764 16.5853 2.6014 16.2601 2.27619 15.7723C2.11359 15.6097 1.95099 14.9593 1.78839 13.9836V5.85362C1.78839 4.87801 1.95099 4.39022 2.11359 4.06502C2.43879 3.57722 2.6014 3.25201 2.9266 2.92682C3.2518 2.60163 3.57701 2.43901 4.0648 2.27641C4.39 2.11381 4.87781 1.95121 5.8534 1.95121C6.9916 1.78861 7.3168 1.78861 10.081 1.78861ZM5.8534 1e-05C4.87779 0.16261 4.0648 0.32521 3.4144 0.48781C2.764 0.81301 2.2762 1.13821 1.6258 1.62601C1.13799 2.27641 0.81279 2.76421 0.4876 3.41461C0.325 4.06502 0.1624 4.87801 -0.000200272 5.85361V14.1462C-0.000200272 15.2845 0.1624 15.9349 0.4876 16.5853C0.8128 17.2357 1.138 17.7235 1.6258 18.3739C2.1136 18.8617 2.764 19.3495 3.4144 19.5121C4.06481 19.8373 4.7152 19.9999 5.8534 19.9999H13.9834C15.1217 19.9999 15.7721 19.8373 16.4225 19.5121C17.0729 19.1869 17.5607 18.8617 18.2111 18.3739C18.6989 17.8861 19.1867 17.2357 19.3493 16.5853C19.6745 15.9349 19.8371 15.2845 19.8371 14.1462V6.01621C19.8371 4.87801 19.6745 4.22761 19.3493 3.57721C19.0241 2.9268 18.6989 2.43901 18.2111 1.78861C17.7233 1.3008 17.0729 0.813 16.4225 0.65041C15.9347 0.3252 15.1217 0.1626 14.146 0L5.8534 1e-05Z" fill="white"/>
<path d="M10.081 4.87791C7.1542 4.87791 4.8778 7.15431 4.8778 10.0812C4.8778 12.8454 7.1542 15.2844 10.081 15.2844C13.0078 15.2844 15.2843 13.008 15.2843 10.0812C15.1217 7.15441 12.8452 4.87791 10.081 4.87791ZM10.081 13.3332C8.1298 13.3332 6.6664 11.8698 6.6664 10.0812C6.6664 8.13001 8.1298 6.66661 10.081 6.66661C12.0322 6.66661 13.333 8.13001 13.333 10.0812C13.333 11.8698 11.8696 13.3332 10.081 13.3332Z" fill="white"/>
<path d="M15.285 5.85361C15.9136 5.85361 16.4232 5.34402 16.4232 4.71541C16.4232 4.0868 15.9136 3.57721 15.285 3.57721C14.6564 3.57721 14.1468 4.0868 14.1468 4.71541C14.1468 5.34402 14.6564 5.85361 15.285 5.85361Z" fill="white"/>
</g>
<defs>
<clipPath id="clip0_1_2">
<rect width="20" height="20" fill="white"/>
</clipPath>
</defs>
</svg>
