<svg width="20" height="20" viewBox="0 0 20 20" fill="none" xmlns="http://www.w3.org/2000/svg">
<g clip-path="url(#clip0_1_9)">
<path d="M0 1.47541C0 0.655739 0.655701 0 1.4754 0H18.5246C19.3443 0 20 0.655739 20 1.47541V18.6885C20 19.5082 19.3443 20.1639 18.5246 20.1639H1.4754C0.655701 20.1639 0 19.5082 0 18.6885V1.47541Z" fill="white"/>
<path fill-rule="evenodd" clip-rule="evenodd" d="M6.066 16.885V7.7046H3.1151V16.885H6.066ZM4.5905 6.557C5.5742 6.557 6.2299 5.90126 6.2299 4.9177C6.2299 4.09802 5.5742 3.2783 4.5905 3.2783C3.6069 3.2783 2.9512 3.93404 2.9512 4.9177C2.9512 5.9013 3.6069 6.557 4.5905 6.557Z" fill="black"/>
<path fill-rule="evenodd" clip-rule="evenodd" d="M7.705 16.885H10.6558V11.803C10.6558 11.4751 10.6558 11.3112 10.8198 10.9833C10.9837 10.4915 11.4755 9.8358 12.2952 9.8358C13.4427 9.8358 13.7706 10.6555 13.7706 11.9669V16.885H16.7214V11.6391C16.7214 8.8522 15.246 7.5407 13.2788 7.5407C11.6394 7.5407 10.9837 8.5243 10.4919 9.0161V7.7046H7.705C7.8689 8.68821 7.705 16.885 7.705 16.885Z" fill="black"/>
</g>
<defs>
<clipPath id="clip0_1_9">
<rect width="20" height="20" fill="white"/>
</clipPath>
</defs>
</svg>
